<mxfile host="app.diagrams.net" modified="2023-05-19T13:15:17.748Z" agent="Mozilla/5.0 (Windows NT 10.0; Win64; x64) AppleWebKit/537.36 (KHTML, like Gecko) Chrome/113.0.0.0 Safari/537.36" etag="O6en8zNmmKZacnQBFD8M" version="21.3.0" type="device">
  <diagram name="페이지-1" id="xwWEDSHzvaBobq_93dtw">
    <mxGraphModel dx="1434" dy="796" grid="1" gridSize="10" guides="1" tooltips="1" connect="1" arrows="1" fold="1" page="1" pageScale="1" pageWidth="1169" pageHeight="1654" math="0" shadow="0">
      <root>
        <mxCell id="0" />
        <mxCell id="1" parent="0" />
        <mxCell id="B_0qRA-3hvZe59kuN4r7-22" value="" style="rounded=0;whiteSpace=wrap;html=1;fillColor=#d5e8d4;strokeColor=#82b366;opacity=30;" vertex="1" parent="1">
          <mxGeometry x="645" y="160" width="120" height="310" as="geometry" />
        </mxCell>
        <mxCell id="B_0qRA-3hvZe59kuN4r7-26" value="" style="rounded=0;whiteSpace=wrap;html=1;fillColor=#fff2cc;strokeColor=#d6b656;opacity=30;" vertex="1" parent="1">
          <mxGeometry x="395" y="160" width="250" height="310" as="geometry" />
        </mxCell>
        <mxCell id="B_0qRA-3hvZe59kuN4r7-24" value="" style="rounded=0;whiteSpace=wrap;html=1;fillColor=#f8cecc;strokeColor=#b85450;opacity=30;" vertex="1" parent="1">
          <mxGeometry x="765" y="160" width="360" height="310" as="geometry" />
        </mxCell>
        <mxCell id="B_0qRA-3hvZe59kuN4r7-20" value="" style="rounded=0;whiteSpace=wrap;html=1;fillColor=#d5e8d4;strokeColor=#82b366;opacity=30;" vertex="1" parent="1">
          <mxGeometry x="240" y="160" width="155" height="310" as="geometry" />
        </mxCell>
        <mxCell id="B_0qRA-3hvZe59kuN4r7-18" value="" style="rounded=0;whiteSpace=wrap;html=1;fillColor=#f8cecc;strokeColor=#b85450;opacity=30;" vertex="1" parent="1">
          <mxGeometry x="69" y="160" width="170" height="310" as="geometry" />
        </mxCell>
        <mxCell id="B_0qRA-3hvZe59kuN4r7-1" value="Domain" style="rounded=1;whiteSpace=wrap;html=1;" vertex="1" parent="1">
          <mxGeometry x="450" y="340" width="100" height="50" as="geometry" />
        </mxCell>
        <mxCell id="B_0qRA-3hvZe59kuN4r7-4" style="edgeStyle=orthogonalEdgeStyle;rounded=0;orthogonalLoop=1;jettySize=auto;html=1;exitX=0;exitY=0.5;exitDx=0;exitDy=0;entryX=1;entryY=0.5;entryDx=0;entryDy=0;endArrow=block;endFill=0;" edge="1" parent="1" source="B_0qRA-3hvZe59kuN4r7-2" target="B_0qRA-3hvZe59kuN4r7-3">
          <mxGeometry relative="1" as="geometry" />
        </mxCell>
        <mxCell id="B_0qRA-3hvZe59kuN4r7-7" style="edgeStyle=orthogonalEdgeStyle;rounded=0;orthogonalLoop=1;jettySize=auto;html=1;exitX=0.5;exitY=1;exitDx=0;exitDy=0;" edge="1" parent="1" source="B_0qRA-3hvZe59kuN4r7-2" target="B_0qRA-3hvZe59kuN4r7-1">
          <mxGeometry relative="1" as="geometry" />
        </mxCell>
        <mxCell id="B_0qRA-3hvZe59kuN4r7-9" style="edgeStyle=orthogonalEdgeStyle;rounded=0;orthogonalLoop=1;jettySize=auto;html=1;exitX=1;exitY=0.5;exitDx=0;exitDy=0;endArrow=blockThin;endFill=1;" edge="1" parent="1" source="B_0qRA-3hvZe59kuN4r7-2" target="B_0qRA-3hvZe59kuN4r7-8">
          <mxGeometry relative="1" as="geometry">
            <Array as="points">
              <mxPoint x="695" y="265" />
            </Array>
          </mxGeometry>
        </mxCell>
        <mxCell id="B_0qRA-3hvZe59kuN4r7-32" style="edgeStyle=orthogonalEdgeStyle;rounded=0;orthogonalLoop=1;jettySize=auto;html=1;exitX=0.5;exitY=1;exitDx=0;exitDy=0;entryX=0.25;entryY=0;entryDx=0;entryDy=0;" edge="1" parent="1" source="B_0qRA-3hvZe59kuN4r7-2" target="B_0qRA-3hvZe59kuN4r7-31">
          <mxGeometry relative="1" as="geometry">
            <Array as="points">
              <mxPoint x="500" y="310" />
              <mxPoint x="435" y="310" />
            </Array>
          </mxGeometry>
        </mxCell>
        <mxCell id="B_0qRA-3hvZe59kuN4r7-2" value="Service" style="rounded=1;whiteSpace=wrap;html=1;" vertex="1" parent="1">
          <mxGeometry x="450" y="240" width="100" height="50" as="geometry" />
        </mxCell>
        <mxCell id="B_0qRA-3hvZe59kuN4r7-3" value="&amp;lt;interface&amp;gt;&lt;br&gt;Usecase" style="rounded=1;whiteSpace=wrap;html=1;" vertex="1" parent="1">
          <mxGeometry x="255" y="240" width="100" height="50" as="geometry" />
        </mxCell>
        <mxCell id="B_0qRA-3hvZe59kuN4r7-6" style="edgeStyle=orthogonalEdgeStyle;rounded=0;orthogonalLoop=1;jettySize=auto;html=1;exitX=1;exitY=0.5;exitDx=0;exitDy=0;entryX=0;entryY=0.5;entryDx=0;entryDy=0;" edge="1" parent="1" source="B_0qRA-3hvZe59kuN4r7-5" target="B_0qRA-3hvZe59kuN4r7-3">
          <mxGeometry relative="1" as="geometry" />
        </mxCell>
        <mxCell id="B_0qRA-3hvZe59kuN4r7-33" style="edgeStyle=orthogonalEdgeStyle;rounded=0;orthogonalLoop=1;jettySize=auto;html=1;exitX=0.5;exitY=1;exitDx=0;exitDy=0;entryX=0;entryY=0.5;entryDx=0;entryDy=0;" edge="1" parent="1" source="B_0qRA-3hvZe59kuN4r7-5" target="B_0qRA-3hvZe59kuN4r7-31">
          <mxGeometry relative="1" as="geometry" />
        </mxCell>
        <mxCell id="B_0qRA-3hvZe59kuN4r7-5" value="Controller" style="rounded=1;whiteSpace=wrap;html=1;" vertex="1" parent="1">
          <mxGeometry x="99" y="240" width="100" height="50" as="geometry" />
        </mxCell>
        <mxCell id="B_0qRA-3hvZe59kuN4r7-8" value="&amp;lt;interface&amp;gt;&lt;br&gt;PersistencePort" style="rounded=1;whiteSpace=wrap;html=1;" vertex="1" parent="1">
          <mxGeometry x="655" y="240" width="100" height="50" as="geometry" />
        </mxCell>
        <mxCell id="B_0qRA-3hvZe59kuN4r7-11" style="edgeStyle=orthogonalEdgeStyle;rounded=0;orthogonalLoop=1;jettySize=auto;html=1;exitX=0;exitY=0.5;exitDx=0;exitDy=0;entryX=1;entryY=0.5;entryDx=0;entryDy=0;endArrow=blockThin;endFill=0;" edge="1" parent="1" source="B_0qRA-3hvZe59kuN4r7-10" target="B_0qRA-3hvZe59kuN4r7-8">
          <mxGeometry relative="1" as="geometry">
            <mxPoint x="795" y="315" as="targetPoint" />
          </mxGeometry>
        </mxCell>
        <mxCell id="B_0qRA-3hvZe59kuN4r7-13" style="edgeStyle=orthogonalEdgeStyle;rounded=0;orthogonalLoop=1;jettySize=auto;html=1;exitX=0.5;exitY=1;exitDx=0;exitDy=0;entryX=0.5;entryY=0;entryDx=0;entryDy=0;" edge="1" parent="1" source="B_0qRA-3hvZe59kuN4r7-10" target="B_0qRA-3hvZe59kuN4r7-12">
          <mxGeometry relative="1" as="geometry" />
        </mxCell>
        <mxCell id="B_0qRA-3hvZe59kuN4r7-15" style="edgeStyle=orthogonalEdgeStyle;rounded=0;orthogonalLoop=1;jettySize=auto;html=1;exitX=0.5;exitY=1;exitDx=0;exitDy=0;entryX=0.5;entryY=0;entryDx=0;entryDy=0;" edge="1" parent="1" source="B_0qRA-3hvZe59kuN4r7-10" target="B_0qRA-3hvZe59kuN4r7-14">
          <mxGeometry relative="1" as="geometry" />
        </mxCell>
        <mxCell id="B_0qRA-3hvZe59kuN4r7-17" style="edgeStyle=orthogonalEdgeStyle;rounded=0;orthogonalLoop=1;jettySize=auto;html=1;exitX=0.5;exitY=1;exitDx=0;exitDy=0;entryX=0.5;entryY=0;entryDx=0;entryDy=0;" edge="1" parent="1" source="B_0qRA-3hvZe59kuN4r7-10" target="B_0qRA-3hvZe59kuN4r7-16">
          <mxGeometry relative="1" as="geometry" />
        </mxCell>
        <mxCell id="B_0qRA-3hvZe59kuN4r7-10" value="PersistenceAdapter" style="rounded=1;whiteSpace=wrap;html=1;" vertex="1" parent="1">
          <mxGeometry x="875" y="240" width="120" height="50" as="geometry" />
        </mxCell>
        <mxCell id="B_0qRA-3hvZe59kuN4r7-12" value="Entity" style="rounded=1;whiteSpace=wrap;html=1;" vertex="1" parent="1">
          <mxGeometry x="885" y="330" width="100" height="50" as="geometry" />
        </mxCell>
        <mxCell id="B_0qRA-3hvZe59kuN4r7-29" style="edgeStyle=orthogonalEdgeStyle;rounded=0;orthogonalLoop=1;jettySize=auto;html=1;exitX=0.5;exitY=1;exitDx=0;exitDy=0;endArrow=block;endFill=0;" edge="1" parent="1" source="B_0qRA-3hvZe59kuN4r7-14" target="B_0qRA-3hvZe59kuN4r7-28">
          <mxGeometry relative="1" as="geometry" />
        </mxCell>
        <mxCell id="B_0qRA-3hvZe59kuN4r7-14" value="Repository" style="rounded=1;whiteSpace=wrap;html=1;" vertex="1" parent="1">
          <mxGeometry x="775" y="330" width="100" height="50" as="geometry" />
        </mxCell>
        <mxCell id="B_0qRA-3hvZe59kuN4r7-16" value="DomainEntityMapper" style="rounded=1;whiteSpace=wrap;html=1;" vertex="1" parent="1">
          <mxGeometry x="995" y="330" width="120" height="50" as="geometry" />
        </mxCell>
        <mxCell id="B_0qRA-3hvZe59kuN4r7-19" value="Adaper(web)" style="text;html=1;align=center;verticalAlign=middle;resizable=0;points=[];autosize=1;strokeColor=none;fillColor=none;" vertex="1" parent="1">
          <mxGeometry x="69" y="160" width="90" height="30" as="geometry" />
        </mxCell>
        <mxCell id="B_0qRA-3hvZe59kuN4r7-21" value="Input Port" style="text;html=1;align=center;verticalAlign=middle;resizable=0;points=[];autosize=1;strokeColor=none;fillColor=none;" vertex="1" parent="1">
          <mxGeometry x="240" y="160" width="80" height="30" as="geometry" />
        </mxCell>
        <mxCell id="B_0qRA-3hvZe59kuN4r7-23" value="Output Port" style="text;html=1;align=center;verticalAlign=middle;resizable=0;points=[];autosize=1;strokeColor=none;fillColor=none;" vertex="1" parent="1">
          <mxGeometry x="645" y="160" width="80" height="30" as="geometry" />
        </mxCell>
        <mxCell id="B_0qRA-3hvZe59kuN4r7-25" value="Adapter(Persistence)" style="text;html=1;align=center;verticalAlign=middle;resizable=0;points=[];autosize=1;strokeColor=none;fillColor=none;" vertex="1" parent="1">
          <mxGeometry x="766" y="160" width="140" height="30" as="geometry" />
        </mxCell>
        <mxCell id="B_0qRA-3hvZe59kuN4r7-27" value="Application Service" style="text;html=1;align=center;verticalAlign=middle;resizable=0;points=[];autosize=1;strokeColor=none;fillColor=none;" vertex="1" parent="1">
          <mxGeometry x="395" y="160" width="130" height="30" as="geometry" />
        </mxCell>
        <mxCell id="B_0qRA-3hvZe59kuN4r7-28" value="JpaRepository" style="rounded=1;whiteSpace=wrap;html=1;" vertex="1" parent="1">
          <mxGeometry x="775" y="410" width="100" height="50" as="geometry" />
        </mxCell>
        <mxCell id="B_0qRA-3hvZe59kuN4r7-31" value="Dto" style="rounded=1;whiteSpace=wrap;html=1;" vertex="1" parent="1">
          <mxGeometry x="410" y="410" width="100" height="50" as="geometry" />
        </mxCell>
      </root>
    </mxGraphModel>
  </diagram>
</mxfile>
